# xmcd
#
# Track frame offsets:
#	150
#	20804
#	37046
#	58398
#	79532
#	96591
#	112706
#	133300
#	152610
#	170214
#	190237
#	211109
#	223599
#	240421
#	260627
#	270206
#	291901
#	312963
#	333100
#
# Disc length: 4652 seconds
#
# Revision: 1
# Processed by: cddbd v1.5.2PL0 Copyright (c) Steve Scherf et al.
# Submitted via: audiograbber 1.83.01
#
DISCID=18122a13
DTITLE=Salsa Latino - Salsa Latino
DYEAR=2000
DGENRE=Dance
TTITLE0=Suavemente
TTITLE1=Delle don Delle
TTITLE2=Gesolina
TTITLE3=La Vida Es Un Carnaval
TTITLE4=Bela Be
TTITLE5=Papi Chulo
TTITLE6=Samaser
TTITLE7=Conga
TTITLE8=La Bomba
TTITLE9=Latinos
TTITLE10=Corazon Epinado
TTITLE11=No Doy Mi Truco
TTITLE12=Bambu - Bambu
TTITLE13=Amor a La Mexicana
TTITLE14=Den Mariachi
TTITLE15=Princesita
TTITLE16=La Bomba
TTITLE17=A Vetura
TTITLE18=Las Kachup
EXTD=
EXTT0=
EXTT1=
EXTT2=
EXTT3=
EXTT4=
EXTT5=
EXTT6=
EXTT7=
EXTT8=
EXTT9=
EXTT10=
EXTT11=
EXTT12=
EXTT13=
EXTT14=
EXTT15=
EXTT16=
EXTT17=
EXTT18=
PLAYORDER=
